<?xml version="1.0" encoding="UTF-8"?>
<svg version="1.1" xmlns="http://www.w3.org/2000/svg" width="512" height="512">
<path d="M0 0 C1.15512734 -0.00155999 2.31025468 -0.00311998 3.50038588 -0.00472724 C6.69804324 -0.00802184 9.89566254 -0.00684128 13.09331894 -0.00374103 C16.54534354 -0.00147681 19.99736302 -0.00497167 23.4493866 -0.00772095 C30.20907622 -0.01216695 36.96875474 -0.01120728 43.7284448 -0.00830831 C49.22356236 -0.00604932 54.71867681 -0.00574391 60.21379471 -0.00683212 C61.38725147 -0.00706197 61.38725147 -0.00706197 62.58441443 -0.00729647 C64.17371038 -0.00761619 65.76300632 -0.00794041 67.35230227 -0.00826906 C82.25500305 -0.01112052 97.15769769 -0.00784224 112.06039746 -0.00246869 C124.84158845 0.00199729 137.62277036 0.00122446 150.40396118 -0.00338745 C165.25048205 -0.00874211 180.09699753 -0.01084402 194.94351923 -0.00777519 C196.52755841 -0.00745664 198.11159758 -0.00714227 199.69563675 -0.00683212 C200.47498433 -0.00667785 201.25433191 -0.00652357 202.05729609 -0.00636462 C207.54341086 -0.00550202 213.0295222 -0.00695687 218.51563644 -0.00931168 C225.20497884 -0.01211984 231.89430951 -0.01135001 238.58365057 -0.00603093 C241.99523882 -0.00340739 245.40680752 -0.00236599 248.81839561 -0.00568008 C252.51998181 -0.00841187 256.22151301 -0.00498549 259.9230957 0 C260.99683862 -0.00223072 262.07058154 -0.00446144 263.17686212 -0.00675976 C268.74298296 0.00778394 274.08258636 0.29868982 279.58853149 1.12698364 C279.58853149 1.78698364 279.58853149 2.44698364 279.58853149 3.12698364 C280.76415649 3.25073364 281.93978149 3.37448364 283.15103149 3.50198364 C287.12973575 3.99134299 290.76619708 4.93250414 294.58853149 6.12698364 C294.58853149 6.78698364 294.58853149 7.44698364 294.58853149 8.12698364 C295.31040649 8.20948364 296.03228149 8.29198364 296.77603149 8.37698364 C300.15390287 9.27774934 301.93731376 10.89437924 304.58853149 13.12698364 C305.57853149 13.45698364 306.56853149 13.78698364 307.58853149 14.12698364 C307.91853149 14.78698364 308.24853149 15.44698364 308.58853149 16.12698364 C309.43415649 16.62198364 310.27978149 17.11698364 311.15103149 17.62698364 C311.95540649 18.12198364 312.75978149 18.61698364 313.58853149 19.12698364 C313.58853149 19.78698364 313.58853149 20.44698364 313.58853149 21.12698364 C314.45478149 21.46729614 314.45478149 21.46729614 315.33853149 21.81448364 C318.19682091 23.48181913 319.61818272 25.47932748 321.58853149 28.12698364 C322.22275024 28.88108521 322.85696899 29.63518677 323.51040649 30.41213989 C325.68144227 33.24836145 327.25225138 36.05538887 328.83853149 39.25198364 C329.35931274 40.28581177 329.88009399 41.31963989 330.41665649 42.38479614 C331.58853149 45.12698364 331.58853149 45.12698364 331.58853149 48.12698364 C332.24853149 48.12698364 332.90853149 48.12698364 333.58853149 48.12698364 C335.28095085 55.51402157 336.85879374 62.76200172 337.37759399 70.33401489 C337.40331056 72.14831081 337.40331056 72.14831081 338.58853149 73.12698364 C338.71353149 76.12698364 338.71353149 76.12698364 338.58853149 79.12698364 C338.25853149 79.45698364 337.92853149 79.78698364 337.58853149 80.12698364 C337.26180307 82.45566619 336.97778939 84.79038747 336.71353149 87.12698364 C335.97879505 93.10721603 334.8109167 98.52744444 332.58853149 104.12698364 C332.02535291 105.64756582 331.46282891 107.16839063 330.90103149 108.68948364 C330.46790649 109.82385864 330.03478149 110.95823364 329.58853149 112.12698364 C328.92853149 112.12698364 328.26853149 112.12698364 327.58853149 112.12698364 C327.21728149 113.45729614 327.21728149 113.45729614 326.83853149 114.81448364 C325.50850628 118.33905045 324.06347724 120.30829544 321.58853149 123.12698364 C321.13220337 123.68514771 320.67587524 124.24331177 320.20571899 124.81838989 C314.66677874 131.53181748 308.11107191 136.74886512 300.58853149 141.12698364 C299.92853149 141.12698364 299.26853149 141.12698364 298.58853149 141.12698364 C298.58853149 141.78698364 298.58853149 142.44698364 298.58853149 143.12698364 C295.21755766 144.62519424 293.3841103 145.12698364 289.58853149 145.12698364 C289.58853149 145.78698364 289.58853149 146.44698364 289.58853149 147.12698364 C282.60432879 149.06500848 275.91549026 150.48072861 268.67056274 150.91604614 C266.60065548 150.90411599 266.60065548 150.90411599 265.58853149 152.12698364 C263.40213696 152.1995731 261.2135276 152.21072147 259.02603149 152.18948364 C257.82849243 152.18046021 256.63095337 152.17143677 255.39712524 152.16213989 C254.47028931 152.15053833 253.54345337 152.13893677 252.58853149 152.12698364 C252.59638672 153.54793335 252.59638672 153.54793335 252.60440063 154.99758911 C252.62157958 158.55732854 252.63404776 162.11702305 252.64346313 165.67678833 C252.64845046 167.20902202 252.65524271 168.74125107 252.66397095 170.27346802 C252.71027326 178.61877957 252.63587321 186.83071779 251.58853149 195.12698364 C250.92853149 195.12698364 250.26853149 195.12698364 249.58853149 195.12698364 C249.53954712 195.96100708 249.49056274 196.79503052 249.44009399 197.65432739 C248.99535881 204.34835865 248.24171109 210.62447723 246.58853149 217.12698364 C245.92853149 217.12698364 245.26853149 217.12698364 244.58853149 217.12698364 C244.44415649 218.19948364 244.29978149 219.27198364 244.15103149 220.37698364 C243.75103707 223.04361313 243.31261225 225.54098093 242.58853149 228.12698364 C241.92853149 228.12698364 241.26853149 228.12698364 240.58853149 228.12698364 C240.48669556 228.98549927 240.38485962 229.84401489 240.27993774 230.72854614 C239.53055737 234.41194119 238.26229919 237.17721572 236.52603149 240.50198364 C235.97817993 241.56159302 235.43032837 242.62120239 234.86587524 243.71292114 C234.23359009 244.90788208 234.23359009 244.90788208 233.58853149 246.12698364 C232.92853149 246.12698364 232.26853149 246.12698364 231.58853149 246.12698364 C231.46478149 246.68385864 231.34103149 247.24073364 231.21353149 247.81448364 C229.47463913 254.24838539 229.47463913 254.24838539 227.20571899 256.49807739 C225.33217107 258.38520175 224.02104377 260.38868321 222.58853149 262.62698364 C220.77892124 265.45449966 219.00577785 267.80515491 216.58853149 270.12698364 C215.66381629 271.22441865 214.74741899 272.32890482 213.83853149 273.43948364 C211.15254241 276.61689428 208.24206207 279.25824488 205.00650024 281.86526489 C203.45158729 283.09177658 203.45158729 283.09177658 202.58853149 285.12698364 C201.99040649 285.41573364 201.39228149 285.70448364 200.77603149 286.00198364 C198.49851271 287.03247328 198.49851271 287.03247328 196.77603149 288.93948364 C193.9960479 291.71946724 190.9625162 294.0992687 187.58853149 296.12698364 C186.92853149 296.12698364 186.26853149 296.12698364 185.58853149 296.12698364 C185.58853149 296.78698364 185.58853149 297.44698364 185.58853149 298.12698364 C179.96353149 301.12698364 179.96353149 301.12698364 176.58853149 301.12698364 C176.58853149 301.78698364 176.58853149 302.44698364 176.58853149 303.12698364 C144.161464 318.51903168 144.161464 318.51903168 125.58853149 319.12698364 C125.58853149 319.78698364 125.58853149 320.44698364 125.58853149 321.12698364 C117.75620502 321.97965353 110.02675215 322.28109906 102.15103149 322.25198364 C101.10882446 322.25585083 100.06661743 322.25971802 98.99282837 322.26370239 C91.81294763 322.25479987 84.73316006 321.82842431 77.58853149 321.12698364 C77.58853149 320.46698364 77.58853149 319.80698364 77.58853149 319.12698364 C76.99169556 319.11280396 76.39485962 319.09862427 75.77993774 319.08401489 C58.61497848 318.14032471 43.67512117 310.75802996 28.58853149 303.12698364 C28.58853149 302.46698364 28.58853149 301.80698364 28.58853149 301.12698364 C27.19634399 300.72479614 27.19634399 300.72479614 25.77603149 300.31448364 C22.70299836 299.16962816 21.71211137 298.44361623 19.58853149 296.12698364 C17.48863497 294.95123653 17.48863497 294.95123653 15.58853149 294.12698364 C15.58853149 293.46698364 15.58853149 292.80698364 15.58853149 292.12698364 C15.05228149 292.06510864 14.51603149 292.00323364 13.96353149 291.93948364 C10.55072586 290.77194487 8.24393909 288.47746405 5.58853149 286.12698364 C5.02907837 285.67065552 4.46962524 285.21432739 3.89321899 284.74417114 C-0.73520921 280.94595427 -4.59785202 276.73241033 -8.41146851 272.12698364 C-9.14365601 271.24784302 -9.87584351 270.36870239 -10.63021851 269.46292114 C-16.41146851 262.39921076 -16.41146851 262.39921076 -16.41146851 260.12698364 C-17.07146851 260.12698364 -17.73146851 260.12698364 -18.41146851 260.12698364 C-21.41146851 255.74236826 -21.41146851 255.74236826 -21.41146851 253.12698364 C-22.07146851 253.12698364 -22.73146851 253.12698364 -23.41146851 253.12698364 C-24.87209701 250.47959448 -25.41146851 249.2325003 -25.41146851 246.12698364 C-26.07146851 246.12698364 -26.73146851 246.12698364 -27.41146851 246.12698364 C-30.41146851 240.50198364 -30.41146851 240.50198364 -30.41146851 237.12698364 C-31.07146851 237.12698364 -31.73146851 237.12698364 -32.41146851 237.12698364 C-33.07146851 234.15698364 -33.73146851 231.18698364 -34.41146851 228.12698364 C-35.07146851 228.12698364 -35.73146851 228.12698364 -36.41146851 228.12698364 C-36.91839542 226.54585444 -37.41673294 224.96196981 -37.91146851 223.37698364 C-38.32912476 222.05440552 -38.32912476 222.05440552 -38.75521851 220.70510864 C-39.41146851 218.12698364 -39.41146851 218.12698364 -39.41146851 214.12698364 C-40.07146851 214.12698364 -40.73146851 214.12698364 -41.41146851 214.12698364 C-43.70759607 204.71696086 -43.70759607 204.71696086 -43.41146851 200.12698364 C-44.07146851 200.12698364 -44.73146851 200.12698364 -45.41146851 200.12698364 C-48.13596554 184.06361714 -47.70676037 167.81281201 -47.68011951 151.57930446 C-47.67499649 147.47382143 -47.67976744 143.36834661 -47.68289185 139.26286316 C-47.68650966 132.38332486 -47.68178635 125.5038298 -47.67221069 118.6242981 C-47.66129127 110.68801941 -47.66488572 102.75184324 -47.6758635 94.81556696 C-47.68495245 87.96843782 -47.68621497 81.12133944 -47.68098617 74.27420622 C-47.6778803 70.19858942 -47.67741967 66.12302079 -47.68405914 62.04740715 C-47.68985686 58.22311359 -47.68579161 54.39895207 -47.67427063 50.5746727 C-47.67163866 49.17670854 -47.67236397 47.77873316 -47.67679596 46.38077354 C-47.69717041 39.29896457 -47.55916779 32.90574694 -45.41146851 26.12698364 C-44.75146851 26.12698364 -44.09146851 26.12698364 -43.41146851 26.12698364 C-43.26709351 25.34323364 -43.12271851 24.55948364 -42.97396851 23.75198364 C-42.41146851 21.12698364 -42.41146851 21.12698364 -41.41146851 19.12698364 C-40.75146851 19.12698364 -40.09146851 19.12698364 -39.41146851 19.12698364 C-39.22584351 18.42573364 -39.04021851 17.72448364 -38.84896851 17.00198364 C-36.84152342 12.98709347 -33.9334749 10.82028265 -30.41146851 8.12698364 C-29.42146851 7.36385864 -28.43146851 6.60073364 -27.41146851 5.81448364 C-24.01568025 3.90435275 -21.26970991 3.43564295 -17.41146851 3.12698364 C-17.41146851 2.46698364 -17.41146851 1.80698364 -17.41146851 1.12698364 C-11.61333762 -0.1206417 -5.89898281 -0.01220454 0 0 Z M-3.41146851 44.12698364 C-3.41146851 64.58698364 -3.41146851 85.04698364 -3.41146851 106.12698364 C66.54853149 106.12698364 136.50853149 106.12698364 208.58853149 106.12698364 C208.58853149 85.66698364 208.58853149 65.20698364 208.58853149 44.12698364 C138.62853149 44.12698364 68.66853149 44.12698364 -3.41146851 44.12698364 Z M252.58853149 44.12698364 C252.58853149 64.58698364 252.58853149 85.04698364 252.58853149 106.12698364 C268.79657415 107.07566694 268.79657415 107.07566694 276.58853149 104.12698364 C276.91853149 103.46698364 277.24853149 102.80698364 277.58853149 102.12698364 C278.43415649 101.63198364 279.27978149 101.13698364 280.15103149 100.62698364 C280.95540649 100.13198364 281.75978149 99.63698364 282.58853149 99.12698364 C282.58853149 98.46698364 282.58853149 97.80698364 282.58853149 97.12698364 C283.22790649 96.85885864 283.86728149 96.59073364 284.52603149 96.31448364 C286.91984836 95.24030612 286.91984836 95.24030612 287.58853149 92.12698364 C288.24853149 92.12698364 288.90853149 92.12698364 289.58853149 92.12698364 C293.30161521 83.30840982 294.55168681 72.86290466 291.40103149 63.62698364 C288.62546306 58.26726528 285.81090192 53.39096516 280.58853149 50.12698364 C279.76353149 49.57010864 278.93853149 49.01323364 278.08853149 48.43948364 C275.46886443 46.81709438 275.46886443 46.81709438 271.58853149 47.12698364 C271.58853149 46.46698364 271.58853149 45.80698364 271.58853149 45.12698364 C264.46513841 43.77078584 264.46513841 43.77078584 252.58853149 44.12698364 Z M-3.41146851 152.12698364 C-4.45108208 175.17432595 -4.45108208 175.17432595 -0.41146851 197.12698364 C0.6344454 201.11581218 1.61589461 205.11971966 2.58853149 209.12698364 C3.24853149 209.12698364 3.90853149 209.12698364 4.58853149 209.12698364 C4.71228149 210.01385864 4.83603149 210.90073364 4.96353149 211.81448364 C5.53265886 214.83085867 6.35467585 217.33024419 7.58853149 220.12698364 C8.24853149 220.12698364 8.90853149 220.12698364 9.58853149 220.12698364 C9.73290649 220.91073364 9.87728149 221.69448364 10.02603149 222.50198364 C10.46652074 225.09119382 10.46652074 225.09119382 11.58853149 227.12698364 C12.24853149 227.12698364 12.90853149 227.12698364 13.58853149 227.12698364 C13.85665649 228.09635864 14.12478149 229.06573364 14.40103149 230.06448364 C14.79290649 231.07510864 15.18478149 232.08573364 15.58853149 233.12698364 C17.07353149 233.62198364 17.07353149 233.62198364 18.58853149 234.12698364 C19.25519816 235.79365031 19.92186483 237.46031698 20.58853149 239.12698364 C23.84261563 243.52956806 27.54866638 246.98235072 31.72134399 250.51370239 C33.58853149 252.12698364 33.58853149 252.12698364 35.16275024 253.75979614 C37.07020817 255.58886539 39.11994017 256.25964075 41.58853149 257.12698364 C41.58853149 257.78698364 41.58853149 258.44698364 41.58853149 259.12698364 C44.40363143 261.40433374 44.40363143 261.40433374 47.58853149 261.12698364 C47.91853149 261.78698364 48.24853149 262.44698364 48.58853149 263.12698364 C51.52557605 265.13654045 52.98075635 266.12698364 56.58853149 266.12698364 C56.58853149 266.78698364 56.58853149 267.44698364 56.58853149 268.12698364 C58.19109257 268.63210608 59.79564941 269.13089991 61.40103149 269.62698364 C62.29435181 269.90542114 63.18767212 270.18385864 64.10806274 270.47073364 C66.64426545 271.25486715 66.64426545 271.25486715 69.58853149 271.12698364 C69.58853149 271.78698364 69.58853149 272.44698364 69.58853149 273.12698364 C70.55532837 273.32034302 71.52212524 273.51370239 72.51821899 273.71292114 C73.14341431 273.8382019 73.76860962 273.96348267 74.41275024 274.09255981 C75.79258576 274.36803412 77.17280334 274.64160082 78.55337524 274.9133606 C81.4765485 275.49082391 84.38548994 276.07843023 87.28384399 276.77151489 C94.04803995 278.3651136 105.18884524 280.32682677 111.58853149 277.12698364 C112.64040649 277.14760864 113.69228149 277.16823364 114.77603149 277.18948364 C118.79203757 277.12364748 121.76440364 276.31378194 125.58853149 275.12698364 C128.57969866 274.41867526 131.58224162 273.76778012 134.58853149 273.12698364 C134.58853149 272.46698364 134.58853149 271.80698364 134.58853149 271.12698364 C135.59915649 271.00323364 136.60978149 270.87948364 137.65103149 270.75198364 C141.46790761 270.14613029 144.90353261 269.25504453 148.58853149 268.12698364 C148.58853149 267.46698364 148.58853149 266.80698364 148.58853149 266.12698364 C150.56853149 265.46698364 152.54853149 264.80698364 154.58853149 264.12698364 C154.58853149 263.46698364 154.58853149 262.80698364 154.58853149 262.12698364 C155.35165649 262.00323364 156.11478149 261.87948364 156.90103149 261.75198364 C159.79120285 261.24595572 159.79120285 261.24595572 162.58853149 259.12698364 C162.58853149 258.46698364 162.58853149 257.80698364 162.58853149 257.12698364 C163.31298462 256.88335083 164.03743774 256.63971802 164.78384399 256.38870239 C169.87426206 254.09872324 173.57911123 249.93624564 177.58853149 246.12698364 C178.28075806 245.47600708 178.97298462 244.82503052 179.68618774 244.15432739 C182.88478801 241.06438446 185.62066174 238.17848019 187.58853149 234.12698364 C187.58853149 233.46698364 187.58853149 232.80698364 187.58853149 232.12698364 C188.57853149 231.79698364 189.56853149 231.46698364 190.58853149 231.12698364 C190.9606357 229.80394647 191.29483323 228.4696043 191.58853149 227.12698364 C192.24853149 226.79698364 192.90853149 226.46698364 193.58853149 226.12698364 C194.49578584 224.0137094 194.49578584 224.0137094 195.21353149 221.56448364 C195.47392212 220.73819458 195.73431274 219.91190552 196.00259399 219.06057739 C196.19595337 218.42249146 196.38931274 217.78440552 196.58853149 217.12698364 C197.24853149 217.12698364 197.90853149 217.12698364 198.58853149 217.12698364 C198.85407837 216.31874146 199.11962524 215.51049927 199.39321899 214.67776489 C199.74642212 213.60913208 200.09962524 212.54049927 200.46353149 211.43948364 C200.81157837 210.38374146 201.15962524 209.32799927 201.51821899 208.24026489 C202.17267933 206.33659743 202.87440858 204.44737108 203.65493774 202.59182739 C204.69038617 199.85807026 205.18732273 197.26055072 205.65103149 194.37698364 C206.48326834 189.2322468 206.48326834 189.2322468 207.58853149 188.12698364 C208.7830367 176.18193159 208.58853149 164.13161238 208.58853149 152.12698364 C138.62853149 152.12698364 68.66853149 152.12698364 -3.41146851 152.12698364 Z " fill="#F88005" transform="translate(123.41146850585938,71.87301635742188)"/>
<path d="M0 0 C112.86 0 225.72 0 342 0 C342 14.52 342 29.04 342 44 C229.14 44 116.28 44 0 44 C0 29.48 0 14.96 0 0 Z " fill="#FF8303" transform="translate(76,414)"/>
<path d="M0 0 C0.66 0.33 1.32 0.66 2 1 C-1.53962332 5.38239078 -5.1912706 9.2004719 -9.58203125 12.73828125 C-11.1369442 13.96479293 -11.1369442 13.96479293 -12 16 C-12.66 16 -13.32 16 -14 16 C-12.78081437 11.39418763 -10.38332384 9.36943097 -6.8203125 6.4921875 C-4.36913023 4.48284924 -2.20604394 2.27289376 0 0 Z " fill="#513C2E" transform="translate(338,341)"/>
<path d="M0 0 C0.66 0.33 1.32 0.66 2 1 C-3.75 5 -3.75 5 -6 5 C-6 5.66 -6 6.32 -6 7 C-8.90600261 8.25664978 -10.79604584 9 -14 9 C-14 8.34 -14 7.68 -14 7 C-13.01 7 -12.02 7 -11 7 C-11 6.34 -11 5.68 -11 5 C-9.21289414 4.13633178 -7.4201535 3.28431406 -5.625 2.4375 C-4.62726563 1.96183594 -3.62953125 1.48617187 -2.6015625 0.99609375 C-1.74304688 0.66738281 -0.88453125 0.33867187 0 0 Z " fill="#8B562F" transform="translate(428,208)"/>
<path d="M0 0 C1.32 0 2.64 0 4 0 C4.226875 0.556875 4.45375 1.11375 4.6875 1.6875 C5.98466965 4.22215457 5.98466965 4.22215457 8.625 6.5625 C11 9 11 9 11 12 C6.43951988 8.38748484 2.98334854 5.01202555 0 0 Z " fill="#5E4739" transform="translate(114,342)"/>
<path d="M0 0 C0.66 0 1.32 0 2 0 C2.66 2.31 3.32 4.62 4 7 C4.66 7 5.32 7 6 7 C6.66 8.98 7.32 10.96 8 13 C7.34 13 6.68 13 6 13 C5.896875 12.360625 5.79375 11.72125 5.6875 11.0625 C5.460625 10.381875 5.23375 9.70125 5 9 C4.01 8.67 3.02 8.34 2 8 C1.67 6.35 1.34 4.7 1 3 C0.34 3 -0.32 3 -1 3 C-0.67 2.01 -0.34 1.02 0 0 Z " fill="#88552E" transform="translate(131,292)"/>
<path d="M0 0 C0.33 0.99 0.66 1.98 1 3 C1.66 3 2.32 3 3 3 C3.99 6.63 4.98 10.26 6 14 C5.34 14 4.68 14 4 14 C2.74335022 11.09399739 2 9.20395416 2 6 C1.34 6 0.68 6 0 6 C-0.38218767 4.34385343 -0.71395102 2.67542976 -1 1 C-0.67 0.67 -0.34 0.34 0 0 Z " fill="#92592E" transform="translate(125,278)"/>
<path d="M0 0 C0.66 0 1.32 0 2 0 C1.67 1.32 1.34 2.64 1 4 C0.01 4 -0.98 4 -2 4 C-2.33 4.99 -2.66 5.98 -3 7 C-5.0625 7.6875 -5.0625 7.6875 -7 8 C-7.33 7.01 -7.66 6.02 -8 5 C-6.865625 4.54625 -5.73125 4.0925 -4.5625 3.625 C-0.95278308 2.42904194 -0.95278308 2.42904194 0 0 Z " fill="#8A5424" transform="translate(286,329)"/>
<path d="M0 0 C0.66 0.33 1.32 0.66 2 1 C0.41641358 4.16717283 -0.45263699 5.73268318 -3.6875 7.3125 C-4.450625 7.539375 -5.21375 7.76625 -6 8 C-4.73058503 4.08597051 -3.48832306 2.20927127 0 0 Z " fill="#7D5638" transform="translate(410,166)"/>
<path d="M0 0 C1.9375 0.8125 1.9375 0.8125 4 2 C4.33 2.99 4.66 3.98 5 5 C5.99 5.33 6.98 5.66 8 6 C8 6.66 8 7.32 8 8 C4.22699642 6.9802693 3.19793856 6.34127338 1.1875 2.875 C0.795625 1.92625 0.40375 0.9775 0 0 Z " fill="#614F3D" transform="translate(149,317)"/>
<path d="M0 0 C0 0.66 0 1.32 0 2 C-1.28913487 2.67154933 -2.58140204 3.33708859 -3.875 4 C-4.59429687 4.37125 -5.31359375 4.7425 -6.0546875 5.125 C-8 6 -8 6 -10 6 C-10 5.34 -10 4.68 -10 4 C-9.34 4 -8.68 4 -8 4 C-8 3.34 -8 2.68 -8 2 C-2.25 0 -2.25 0 0 0 Z " fill="#96562A" transform="translate(287,379)"/>
<path d="M0 0 C2.0625 0.4375 2.0625 0.4375 4 1 C4 1.66 4 2.32 4 3 C5.65 3.33 7.3 3.66 9 4 C9 4.66 9 5.32 9 6 C1.42857143 4.14285714 1.42857143 4.14285714 -1 1 C-0.67 0.67 -0.34 0.34 0 0 Z " fill="#77421D" transform="translate(160,376)"/>
<path d="M0 0 C1.32 0.33 2.64 0.66 4 1 C4 1.66 4 2.32 4 3 C5.65 3.33 7.3 3.66 9 4 C9 4.66 9 5.32 9 6 C2.35384615 4.52307692 2.35384615 4.52307692 0.5625 1.875 C0.376875 1.25625 0.19125 0.6375 0 0 Z " fill="#7B5238" transform="translate(414,77)"/>
<path d="M0 0 C2.475 0.495 2.475 0.495 5 1 C5 1.66 5 2.32 5 3 C5.66 3 6.32 3 7 3 C7 3.66 7 4.32 7 5 C4.69 4.34 2.38 3.68 0 3 C0 2.01 0 1.02 0 0 Z " fill="#9B5F30" transform="translate(152,372)"/>
<path d="M0 0 C0.99 0 1.98 0 3 0 C1.125 5.75 1.125 5.75 0 8 C-0.66 8 -1.32 8 -2 8 C-1.34 5.36 -0.68 2.72 0 0 Z " fill="#975A2F" transform="translate(454,173)"/>
<path d="M0 0 C0.66 0 1.32 0 2 0 C1.34 2.31 0.68 4.62 0 7 C-0.99 7 -1.98 7 -3 7 C-1.125 2.25 -1.125 2.25 0 0 Z " fill="#88502B" transform="translate(318,294)"/>
<path d="M0 0 C1.98 0 3.96 0 6 0 C6 0.99 6 1.98 6 3 C4.35 3 2.7 3 1 3 C0.67 2.01 0.34 1.02 0 0 Z " fill="#7D5632" transform="translate(112,72)"/>
</svg>
